Coordinates
version=1
nRows=50
nColumns=24
inDegrees=yes

Units are S.I. units (second, meters, Newtons, ...)
If the header above contains a line with 'inDegrees', this indicates whether rotational values are in degrees (yes) or radians (no).

endheader
time	pelvis_tilt	pelvis_list	pelvis_rotation	pelvis_tx	pelvis_ty	pelvis_tz	hip_flexion_r	hip_adduction_r	hip_rotation_r	knee_angle_r	ankle_angle_r	subtalar_angle_r	mtp_angle_r	hip_flexion_l	hip_adduction_l	hip_rotation_l	knee_angle_l	ankle_angle_l	subtalar_angle_l	mtp_angle_l	lumbar_extension	lumbar_bending	lumbar_rotation
4.000000	9.404360	1.730460	-181.769205	0.263906	0.753493	-1.209997	42.133027	-20.925377	-22.503399	-60.421211	21.730926	11.464414	0.000000	42.373992	-26.915607	-21.703142	-61.021282	22.168812	15.350906	0.000000	-4.428640	1.335667	3.318375
4.005000	9.323844	1.775771	-181.739755	0.264337	0.751038	-1.210325	42.433224	-21.011615	-22.377010	-61.145628	22.081154	11.425008	0.000000	42.735219	-27.151099	-21.506068	-61.737308	22.503198	15.509812	0.000000	-4.608119	1.340474	3.283421
4.010000	9.431867	1.761672	-181.749479	0.264889	0.748422	-1.210191	42.966261	-21.151804	-22.163974	-61.829108	22.395964	11.418496	0.000000	43.263023	-27.289532	-21.343585	-62.429676	22.861167	15.604638	0.000000	-4.577095	1.356873	3.322724
4.015000	9.380603	1.816351	-181.739273	0.265332	0.746004	-1.210530	43.297233	-21.204503	-22.026490	-62.533321	22.728010	11.352987	0.000000	43.644927	-27.522851	-21.124262	-63.112645	23.163098	15.718668	0.000000	-4.729909	1.418664	3.229113
4.020000	9.469147	1.790693	-181.734302	0.265916	0.743334	-1.210353	43.848172	-21.387268	-21.848318	-63.287258	23.019280	11.302477	0.000000	44.166097	-27.638691	-20.948726	-63.811417	23.508400	15.782511	0.000000	-4.729665	1.380686	3.313181
4.025000	9.510893	1.827415	-181.770361	0.266345	0.740822	-1.210390	44.294867	-21.465717	-21.698250	-63.977281	23.337502	11.257677	0.000000	44.616912	-27.852606	-20.770863	-64.487944	23.822325	15.849576	0.000000	-4.762325	1.467218	3.316174
4.030000	9.523232	1.873798	-181.768126	0.266893	0.738225	-1.210504	44.706071	-21.536396	-21.542469	-64.666912	23.632063	11.220627	0.000000	45.078423	-28.064264	-20.553814	-65.178404	24.126371	15.976893	0.000000	-4.847844	1.498917	3.335432
4.035000	9.510356	1.860716	-181.741749	0.267406	0.735628	-1.210634	45.102342	-21.676882	-21.365203	-65.370414	23.953985	11.201296	0.000000	45.493272	-28.197896	-20.354827	-65.855312	24.461177	16.065183	0.000000	-4.965001	1.448908	3.359777
4.040000	9.525536	1.865478	-181.728857	0.267878	0.733028	-1.210759	45.519178	-21.798702	-21.196027	-66.060362	24.294165	11.212246	0.000000	45.930137	-28.352362	-20.154738	-66.507221	24.800130	16.164375	0.000000	-5.033866	1.433499	3.376759
4.045000	9.575766	1.986630	-181.775460	0.268269	0.730530	-1.210948	45.916877	-21.760625	-21.068604	-66.678921	24.601750	11.240633	0.000000	46.431552	-28.654159	-19.911560	-67.221632	25.038543	16.236838	0.000000	-5.063985	1.583649	3.400827
4.050000	9.627133	1.994635	-181.750737	0.268788	0.727886	-1.210877	46.374715	-21.896220	-20.905559	-67.358306	24.934203	11.242508	0.000000	46.910241	-28.779350	-19.697952	-67.829996	25.414941	16.333604	0.000000	-5.111537	1.583729	3.438844
4.055000	9.583165	1.956248	-181.688566	0.269249	0.725328	-1.211019	46.742057	-22.086692	-20.757011	-68.079096	25.279985	11.181918	0.000000	47.302919	-28.876538	-19.507788	-68.533688	25.629066	16.378444	0.000000	-5.229111	1.542778	3.351760
4.060000	9.675675	2.000378	-181.710358	0.269650	0.722740	-1.211044	47.204693	-22.142506	-20.592759	-68.699125	25.562598	11.215216	0.000000	47.792355	-29.056668	-19.302628	-69.108206	26.033589	16.491058	0.000000	-5.203239	1.582474	3.427240
4.065000	9.674543	2.018209	-181.696023	0.270062	0.720204	-1.211232	47.572962	-22.240763	-20.447914	-69.345449	25.880441	11.241998	0.000000	48.200436	-29.220845	-19.105314	-69.731862	26.323471	16.573998	0.000000	-5.302211	1.591572	3.404718
4.070000	9.721081	2.043456	-181.659077	0.270518	0.717521	-1.211261	47.993968	-22.349991	-20.294991	-69.987631	26.212979	11.309948	0.000000	48.700147	-29.355811	-18.853838	-70.394966	26.715675	16.517916	0.000000	-5.330587	1.609664	3.427058
4.075000	9.681212	2.032074	-181.637533	0.270945	0.714963	-1.211360	48.359681	-22.487555	-20.121855	-70.676317	26.541178	11.327114	0.000000	49.101552	-29.484209	-18.652022	-71.126557	26.872869	16.480460	0.000000	-5.463307	1.573273	3.432300
4.080000	9.690352	2.075559	-181.643144	0.271343	0.712337	-1.211467	48.750450	-22.554343	-19.977841	-71.334642	26.879690	11.308336	0.000000	49.521323	-29.668499	-18.435445	-71.699598	27.290659	16.626281	0.000000	-5.550260	1.616231	3.455829
4.085000	9.692167	2.076750	-181.597419	0.271668	0.709847	-1.211526	49.090698	-22.680741	-19.857412	-71.936788	27.226560	11.281202	0.000000	49.940100	-29.766145	-18.209289	-72.332241	27.418162	16.765325	0.000000	-5.604152	1.645557	3.363434
4.090000	9.740042	2.111627	-181.590919	0.272079	0.707185	-1.211612	49.503284	-22.768129	-19.709625	-72.553586	27.508670	11.372794	0.000000	50.435691	-29.920354	-17.963817	-73.024112	27.713924	16.623481	0.000000	-5.620329	1.629897	3.502366
4.095000	9.720947	2.105552	-181.535993	0.272452	0.704616	-1.211757	49.844503	-22.908191	-19.572677	-73.184687	27.836351	11.366931	0.000000	50.830361	-30.005740	-17.729746	-73.622368	28.007132	16.686921	0.000000	-5.715814	1.675557	3.325454
4.100000	9.690684	2.095736	-181.503662	0.272808	0.702027	-1.211810	50.203281	-23.053221	-19.421233	-73.850064	28.130225	11.352473	0.000000	51.215191	-30.103347	-17.513982	-74.249609	28.281638	16.745998	0.000000	-5.821806	1.592495	3.449760
4.105000	9.642657	2.169937	-181.491055	0.273022	0.699559	-1.212032	50.483379	-23.122884	-19.384588	-74.490995	28.440575	11.313226	0.000000	51.596606	-30.297860	-17.237329	-74.866890	28.539510	16.830411	0.000000	-5.935281	1.705686	3.358024
4.110000	9.681985	2.173574	-181.494731	0.273393	0.696840	-1.211900	50.918411	-23.242321	-19.224255	-75.129606	28.736952	11.291607	0.000000	52.059510	-30.415984	-17.017864	-75.552760	28.820379	16.883668	0.000000	-5.957011	1.680766	3.493855
4.115000	9.693205	2.164194	-181.458751	0.273698	0.694252	-1.211927	51.283421	-23.382289	-19.090401	-75.754354	28.983469	11.294900	0.000000	52.464815	-30.491931	-16.804169	-76.103715	29.114766	16.962529	0.000000	-6.004844	1.729653	3.378749
4.120000	9.638750	2.166107	-181.425004	0.273966	0.691682	-1.212032	51.579257	-23.506351	-18.962406	-76.377114	29.278216	11.267034	0.000000	52.812365	-30.598081	-16.584612	-76.710521	29.417840	17.018264	0.000000	-6.127714	1.675937	3.456044
4.125000	9.634002	2.158139	-181.375007	0.274288	0.689092	-1.212163	51.935369	-23.654290	-18.842213	-77.007461	29.532742	11.314554	0.000000	53.220180	-30.684805	-16.358122	-77.304901	29.681152	17.161052	0.000000	-6.185516	1.652623	3.442158
4.130000	9.567261	2.150227	-181.357768	0.274459	0.686623	-1.212241	52.214377	-23.791192	-18.717916	-77.624633	29.850228	11.312567	0.000000	53.523319	-30.796372	-16.173755	-77.893817	29.979397	17.189006	0.000000	-6.300883	1.687475	3.326684
4.135000	9.575148	2.175742	-181.355150	0.274724	0.684044	-1.212264	52.581778	-23.887027	-18.585781	-78.244237	30.149304	11.362825	0.000000	53.938109	-30.917806	-15.926706	-78.488783	30.282923	17.277609	0.000000	-6.340631	1.669927	3.483926
4.140000	9.551012	2.170979	-181.348382	0.274911	0.681513	-1.212326	52.910064	-24.023050	-18.480381	-78.860653	30.448794	11.326708	0.000000	54.287647	-31.036394	-15.741834	-79.071515	30.574648	17.353047	0.000000	-6.411277	1.734113	3.331643
4.145000	9.575430	2.219189	-181.366056	0.275109	0.678986	-1.212413	53.251645	-24.080387	-18.384875	-79.424949	30.678006	11.399964	0.000000	54.700457	-31.192625	-15.500142	-79.638236	30.831570	17.473830	0.000000	-6.436039	1.756647	3.441662
4.150000	9.500407	2.190545	-181.338525	0.275273	0.676471	-1.212502	53.527172	-24.246501	-18.268733	-80.044487	30.983688	11.366604	0.000000	54.990787	-31.280312	-15.330479	-80.227538	31.098909	17.508043	0.000000	-6.551293	1.761948	3.340057
4.155000	9.423718	2.172279	-181.332639	0.275433	0.674005	-1.212603	53.813868	-24.381354	-18.139177	-80.671736	31.247460	11.330194	0.000000	55.267489	-31.375892	-15.143320	-80.784317	31.394248	17.534713	0.000000	-6.683890	1.687066	3.438793
4.160000	9.397835	2.195355	-181.379477	0.275506	0.671598	-1.212655	54.118729	-24.452552	-18.019205	-81.239484	31.510845	11.358826	0.000000	55.579403	-31.538034	-14.967334	-81.339255	31.687574	17.584389	0.000000	-6.750769	1.735858	3.461018
4.165000	9.366648	2.180693	-181.355605	0.275661	0.669130	-1.212801	54.422384	-24.592263	-17.904055	-81.828329	31.754078	11.412020	0.000000	55.914930	-31.611961	-14.756897	-81.895802	31.890825	17.631293	0.000000	-6.824906	1.760510	3.337551
4.170000	9.302906	2.188152	-181.375171	0.275779	0.666749	-1.212978	54.671352	-24.671965	-17.774803	-82.374777	32.020303	11.440448	0.000000	56.187594	-31.737653	-14.571898	-82.430148	32.179699	17.645306	0.000000	-6.931352	1.706364	3.456607
4.175000	9.258885	2.173335	-181.393777	0.275854	0.664350	-1.213094	54.958601	-24.776537	-17.635734	-82.936146	32.270271	11.454188	0.000000	56.467364	-31.850573	-14.410715	-82.961489	32.449813	17.720219	0.000000	-7.020238	1.707671	3.419178
4.180000	9.225326	2.177163	-181.445845	0.275903	0.661961	-1.213234	55.251633	-24.854280	-17.506237	-83.487199	32.544999	11.518172	0.000000	56.814107	-32.018904	-14.245956	-83.699696	32.457834	17.642053	0.000000	-7.054458	1.712922	3.523687
4.185000	9.160268	2.186355	-181.459476	0.275982	0.659590	-1.213360	55.512614	-24.938859	-17.370126	-84.049816	32.792273	11.560988	0.000000	57.095096	-32.126010	-14.030032	-84.234283	32.711465	17.637924	0.000000	-7.189460	1.772979	3.392771
4.190000	9.050245	2.188413	-181.501157	0.276002	0.657299	-1.213485	55.724972	-25.034307	-17.266035	-84.614350	33.032018	11.550059	0.000000	57.297649	-32.264280	-13.864295	-84.779493	32.964697	17.624984	0.000000	-7.297576	1.734470	3.559344
4.195000	9.008344	2.158725	-181.521152	0.276065	0.654946	-1.213612	56.016692	-25.150365	-17.110862	-85.163849	33.275432	11.640432	0.000000	57.563084	-32.356405	-13.708046	-85.286824	33.193300	17.662860	0.000000	-7.407660	1.751909	3.413014
4.200000	8.949439	2.134380	-181.526278	0.276110	0.652691	-1.213863	56.261014	-25.239345	-16.935558	-85.687072	33.524087	11.788353	0.000000	57.803089	-32.445204	-13.550474	-85.774974	33.441823	17.714469	0.000000	-7.483842	1.698287	3.420540
4.205000	8.896449	2.143921	-181.542363	0.276046	0.650565	-1.214067	56.469114	-25.308565	-16.824731	-86.168591	33.757919	11.920076	0.000000	58.036938	-32.560754	-13.377121	-86.249238	33.697700	17.791762	0.000000	-7.505096	1.696026	3.436795
4.210000	8.822732	2.140956	-181.570978	0.276022	0.648330	-1.214198	56.695541	-25.399799	-16.704801	-86.686889	34.024339	11.944235	0.000000	58.261878	-32.677524	-13.214369	-86.741000	33.942930	17.791911	0.000000	-7.660363	1.695681	3.445813
4.215000	8.757611	2.128761	-181.613606	0.275966	0.646204	-1.214277	56.926700	-25.484148	-16.573320	-87.187934	34.280964	11.971382	0.000000	58.470711	-32.786305	-13.066104	-87.222750	34.180724	17.811495	0.000000	-7.722676	1.694160	3.495924
4.220000	8.695115	2.132033	-181.651205	0.275898	0.644102	-1.214397	57.136730	-25.548885	-16.459993	-87.672766	34.521685	12.008265	0.000000	58.682629	-32.914368	-12.898248	-87.667682	34.487425	17.896544	0.000000	-7.751813	1.600945	3.797799
4.225000	8.638874	2.109251	-181.695063	0.275870	0.641973	-1.214486	57.367658	-25.649002	-16.336964	-88.151827	34.729774	12.077593	0.000000	58.874212	-33.014272	-12.793602	-88.099256	34.710014	17.909808	0.000000	-7.815306	1.588652	3.855510
4.230000	8.616713	2.091473	-181.742878	0.275790	0.639949	-1.214629	57.604009	-25.725007	-16.260931	-88.582171	34.945265	12.043599	0.000000	59.087200	-33.120399	-12.670865	-88.529879	34.926889	17.925374	0.000000	-7.900050	1.663232	3.662558
4.235000	8.530721	2.083598	-181.752658	0.275734	0.637929	-1.214813	57.780144	-25.799996	-16.142619	-89.044813	35.169116	12.062552	0.000000	59.275924	-33.213034	-12.506518	-88.973566	35.135226	17.965257	0.000000	-8.004901	1.640108	3.690620
4.240000	8.468085	2.097847	-181.781644	0.275632	0.636045	-1.214969	57.948951	-25.864656	-16.066732	-89.473777	35.399956	12.145593	0.000000	59.466672	-33.317942	-12.337746	-89.386841	35.364247	17.998943	0.000000	-8.018872	1.573438	3.960409
4.245000	8.417537	2.088420	-181.808386	0.275532	0.634171	-1.215203	58.149064	-25.950519	-15.990711	-89.923116	35.598753	12.170242	0.000000	59.653661	-33.414696	-12.193218	-89.774191	35.580838	18.037046	0.000000	-8.126239	1.653031	3.720633
